<svg width="27" height="27" viewBox="0 0 27 27" fill="none" xmlns="http://www.w3.org/2000/svg">
<g clip-path="url(#clip0_16_86)">
<path d="M5.625 14.6249L18.1912 14.6249L12.7012 20.1149C12.2625 20.5537 12.2625 21.2737 12.7013 21.7124C13.14 22.1512 13.8488 22.1512 14.2875 21.7124L21.7013 14.2987C22.14 13.8599 22.14 13.1512 21.7013 12.7124L14.2875 5.29869C13.8487 4.85994 13.14 4.85994 12.7012 5.29869C12.2625 5.73744 12.2625 6.44619 12.7012 6.88494L18.1912 12.3749L5.625 12.3749C5.00625 12.3749 4.5 12.8812 4.5 13.4999C4.5 14.1187 5.00625 14.6249 5.625 14.6249Z" fill="#4584FF"/>
</g>
<defs>
<clipPath id="clip0_16_86">
<rect width="27" height="27" fill="white" transform="translate(0 27) rotate(-90)"/>
</clipPath>
</defs>
</svg>
